HIERARCHY
ROOT Hips
{
	OFFSET 0.000000 83.214638 0.000000
	CHANNELS 6 Xposition Yposition Zposition Xrotation Yrotation Zrotation
	JOINT Pelvis
	{
		OFFSET 0.000000 0.000000 0.000000
		CHANNELS 3 Xrotation Yrotation Zrotation
		JOINT LeftUpLeg
		{
			OFFSET 8.479700 -4.795502 -0.379100
			CHANNELS 3 Xrotation Yrotation Zrotation
			JOINT LeftLeg
			{
				OFFSET 0.024144 -32.555107 0.112900
				CHANNELS 3 Xrotation Yrotation Zrotation
				JOINT LeftFoot
				{
					OFFSET -0.024144 -32.638630 -3.012600
					CHANNELS 3 Xrotation Yrotation Zrotation
					JOINT LeftToeBase
					{
						OFFSET 0.970200 -13.225400 11.864200
						CHANNELS 3 Xrotation Yrotation Zrotation
						End Site
						{
							OFFSET 0.000000 12.319262 0.000000
						}
					}
					JOINT LFootTongue
					{
						OFFSET 1.142400 -1.059800 6.665200
						CHANNELS 3 Xrotation Yrotation Zrotation
						End Site
						{
							OFFSET 0.000000 12.319262 0.000000
						}
					}
				}
				JOINT LeftPantLeg
				{
					OFFSET 0.918482 -16.533964 -2.284700
					CHANNELS 3 Xrotation Yrotation Zrotation
					End Site
					{
						OFFSET 0.350399 24.744368 0.000000
					}
				}
			}
		}
		JOINT RightUpLeg
		{
			OFFSET -8.479700 -4.795502 -0.379100
			CHANNELS 3 Xrotation Yrotation Zrotation
			JOINT RightLeg
			{
				OFFSET -0.023144 -32.555092 0.112900
				CHANNELS 3 Xrotation Yrotation Zrotation
				JOINT RightFoot
				{
					OFFSET 0.023144 -32.638641 -3.012700
					CHANNELS 3 Xrotation Yrotation Zrotation
					JOINT RightToeBase
					{
						OFFSET -0.970200 -13.225400 11.864200
						CHANNELS 3 Xrotation Yrotation Zrotation
						End Site
						{
							OFFSET 0.000000 12.319244 0.000000
						}
					}
					JOINT RFootTongue
					{
						OFFSET -1.142200 -1.059800 6.665200
						CHANNELS 3 Xrotation Yrotation Zrotation
						End Site
						{
							OFFSET 0.000000 12.319243 0.000000
						}
					}
				}
				JOINT RightPantLeg
				{
					OFFSET -0.919482 -16.533978 -2.284800
					CHANNELS 3 Xrotation Yrotation Zrotation
					End Site
					{
						OFFSET -0.350400 24.744419 0.000000
					}
				}
			}
		}
	}
	JOINT Spine
	{
		OFFSET 0.000000 7.722000 1.166200
		CHANNELS 3 Xrotation Yrotation Zrotation
		JOINT Spine1
		{
			OFFSET 0.000000 12.024101 0.248800
			CHANNELS 3 Xrotation Yrotation Zrotation
			JOINT Spine2
			{
				OFFSET 0.000000 11.502998 -0.491200
				CHANNELS 3 Xrotation Yrotation Zrotation
				JOINT Neck
				{
					OFFSET 0.000000 18.430702 -3.123100
					CHANNELS 3 Xrotation Yrotation Zrotation
					JOINT Head
					{
						OFFSET 0.000000 9.051102 1.034000
						CHANNELS 3 Xrotation Yrotation Zrotation
						JOINT HairB
						{
							OFFSET 0.208400 24.786102 24.822300
							CHANNELS 3 Xrotation Yrotation Zrotation
							End Site
							{
								OFFSET 0.000000 32.263779 0.000000
							}
						}
						JOINT HairA
						{
							OFFSET -7.081100 24.428299 23.196600
							CHANNELS 3 Xrotation Yrotation Zrotation
							End Site
							{
								OFFSET 0.000000 32.263779 0.000000
							}
						}
						JOINT Hat
						{
							OFFSET 16.728800 15.048294 -15.439601
							CHANNELS 3 Xrotation Yrotation Zrotation
							End Site
							{
								OFFSET 0.000000 32.263779 0.000000
							}
						}
					}
				}
				JOINT LeftShoulder
				{
					OFFSET 6.197800 13.665199 -4.064700
					CHANNELS 3 Xrotation Yrotation Zrotation
					JOINT LeftArm
					{
						OFFSET 7.778100 -0.187103 -1.709300
						CHANNELS 3 Xrotation Yrotation Zrotation
						JOINT LeftForeArm
						{
							OFFSET 22.049376 0.000000 0.000000
							CHANNELS 3 Xrotation Yrotation Zrotation
							JOINT LeftHand
							{
								OFFSET 23.009392 0.000000 0.000000
								CHANNELS 3 Xrotation Yrotation Zrotation
								JOINT LeftHandThumb1
								{
									OFFSET 3.507191 -2.063065 3.133727
									CHANNELS 3 Xrotation Yrotation Zrotation
									JOINT LeftHandThumb2
									{
										OFFSET 3.101337 -1.790558 1.790558
										CHANNELS 3 Xrotation Yrotation Zrotation
										JOINT LeftHandThumb3
										{
											OFFSET 3.058640 -1.765907 1.765906
											CHANNELS 3 Xrotation Yrotation Zrotation
											End Site
											{
												OFFSET -0.415260 3.926476 -0.049563
											}
										}
									}
								}
								JOINT LeftHandIndex1
								{
									OFFSET 11.334419 -0.901459 3.706815
									CHANNELS 3 Xrotation Yrotation Zrotation
									JOINT LeftHandIndex2
									{
										OFFSET 3.283112 0.000000 0.000000
										CHANNELS 3 Xrotation Yrotation Zrotation
										JOINT LeftHandIndex3
										{
											OFFSET 3.323853 0.000000 0.000000
											CHANNELS 3 Xrotation Yrotation Zrotation
											End Site
											{
												OFFSET -1.135597 3.097809 0.402452
											}
										}
									}
								}
								JOINT LeftHandMiddle1
								{
									OFFSET 11.335861 0.000000 0.000000
									CHANNELS 3 Xrotation Yrotation Zrotation
									JOINT LeftHandMiddle2
									{
										OFFSET 3.410492 0.000000 0.000000
										CHANNELS 3 Xrotation Yrotation Zrotation
										JOINT LeftHandMiddle3
										{
											OFFSET 3.312172 0.000000 0.000000
											CHANNELS 3 Xrotation Yrotation Zrotation
											End Site
											{
												OFFSET -1.150200 3.080154 0.400270
											}
										}
									}
								}
								JOINT LeftHandRing1
								{
									OFFSET 11.514786 -0.013176 -3.003090
									CHANNELS 3 Xrotation Yrotation Zrotation
									JOINT LeftHandRing2
									{
										OFFSET 3.053307 0.000000 0.000000
										CHANNELS 3 Xrotation Yrotation Zrotation
										JOINT LeftHandRing3
										{
											OFFSET 3.295807 0.000000 0.000000
											CHANNELS 3 Xrotation Yrotation Zrotation
											End Site
											{
												OFFSET -1.281006 3.013344 0.375733
											}
										}
									}
								}
								JOINT LeftHandPinky1
								{
									OFFSET 10.518692 -0.960396 -5.730441
									CHANNELS 3 Xrotation Yrotation Zrotation
									JOINT LeftHandPinky2
									{
										OFFSET 2.861649 0.000000 0.000000
										CHANNELS 3 Xrotation Yrotation Zrotation
										JOINT LeftHandPinky3
										{
											OFFSET 2.863380 0.000000 0.000000
											CHANNELS 3 Xrotation Yrotation Zrotation
											End Site
											{
												OFFSET -0.843597 2.711159 0.369971
											}
										}
									}
								}
							}
							JOINT LSleeve
							{
								OFFSET 6.676277 -0.344902 -1.011730
								CHANNELS 3 Xrotation Yrotation Zrotation
								End Site
								{
									OFFSET 0.000000 14.885353 0.000000
								}
							}
						}
					}
				}
				JOINT RightShoulder
				{
					OFFSET -6.197800 13.665199 -4.064700
					CHANNELS 3 Xrotation Yrotation Zrotation
					JOINT RightArm
					{
						OFFSET -7.778100 -0.187103 -1.709300
						CHANNELS 3 Xrotation Yrotation Zrotation
						JOINT RightForeArm
						{
							OFFSET -22.049376 0.000000 0.000000
							CHANNELS 3 Xrotation Yrotation Zrotation
							JOINT RightHand
							{
								OFFSET -23.009392 0.000000 0.000000
								CHANNELS 3 Xrotation Yrotation Zrotation
								JOINT RightHandThumb1
								{
									OFFSET -3.507191 -2.063065 3.133727
									CHANNELS 3 Xrotation Yrotation Zrotation
									JOINT RightHandThumb2
									{
										OFFSET -3.101337 -1.790558 1.790558
										CHANNELS 3 Xrotation Yrotation Zrotation
										JOINT RightHandThumb3
										{
											OFFSET -3.058640 -1.765907 1.765906
											CHANNELS 3 Xrotation Yrotation Zrotation
											End Site
											{
												OFFSET 0.415260 3.926476 -0.049563
											}
										}
									}
								}
								JOINT RightHandIndex1
								{
									OFFSET -11.334419 -0.901459 3.706815
									CHANNELS 3 Xrotation Yrotation Zrotation
									JOINT RightHandIndex2
									{
										OFFSET -3.283112 0.000000 0.000000
										CHANNELS 3 Xrotation Yrotation Zrotation
										JOINT RightHandIndex3
										{
											OFFSET -3.323853 0.000000 0.000000
											CHANNELS 3 Xrotation Yrotation Zrotation
											End Site
											{
												OFFSET 1.135597 3.097809 0.402452
											}
										}
									}
								}
								JOINT RightHandMiddle1
								{
									OFFSET -11.335861 0.000000 0.000000
									CHANNELS 3 Xrotation Yrotation Zrotation
									JOINT RightHandMiddle2
									{
										OFFSET -3.410492 0.000000 0.000000
										CHANNELS 3 Xrotation Yrotation Zrotation
										JOINT RightHandMiddle3
										{
											OFFSET -3.312172 0.000000 0.000000
											CHANNELS 3 Xrotation Yrotation Zrotation
											End Site
											{
												OFFSET 1.150200 3.080154 0.400270
											}
										}
									}
								}
								JOINT RightHandRing1
								{
									OFFSET -11.514786 -0.013176 -3.003090
									CHANNELS 3 Xrotation Yrotation Zrotation
									JOINT RightHandRing2
									{
										OFFSET -3.053307 0.000000 0.000000
										CHANNELS 3 Xrotation Yrotation Zrotation
										JOINT RightHandRing3
										{
											OFFSET -3.295807 0.000000 0.000000
											CHANNELS 3 Xrotation Yrotation Zrotation
											End Site
											{
												OFFSET 1.281006 3.013344 0.375733
											}
										}
									}
								}
								JOINT RightHandPinky1
								{
									OFFSET -10.518692 -0.960396 -5.730441
									CHANNELS 3 Xrotation Yrotation Zrotation
									JOINT RightHandPinky2
									{
										OFFSET -2.861649 0.000000 0.000000
										CHANNELS 3 Xrotation Yrotation Zrotation
										JOINT RightHandPinky3
										{
											OFFSET -2.863380 0.000000 0.000000
											CHANNELS 3 Xrotation Yrotation Zrotation
											End Site
											{
												OFFSET 0.843597 2.711159 0.369971
											}
										}
									}
								}
							}
							JOINT RSleeve
							{
								OFFSET -6.676277 -0.344902 -1.011730
								CHANNELS 3 Xrotation Yrotation Zrotation
								End Site
								{
									OFFSET 0.000000 14.885353 0.000000
								}
							}
						}
					}
				}
				JOINT Backpack
				{
					OFFSET 0.000000 -2.471497 36.677502
					CHANNELS 3 Xrotation Yrotation Zrotation
					End Site
					{
						OFFSET 0.000000 20.427315 0.000000
					}
				}
				JOINT Hood
				{
					OFFSET 0.000000 18.754097 -10.431000
					CHANNELS 3 Xrotation Yrotation Zrotation
					JOINT Hood1
					{
						OFFSET 0.000000 -5.011002 -7.685901
						CHANNELS 3 Xrotation Yrotation Zrotation
						End Site
						{
							OFFSET 0.000000 9.175140 0.000000
						}
					}
				}
				JOINT LHoodieString
				{
					OFFSET 5.250500 16.397697 3.089900
					CHANNELS 3 Xrotation Yrotation Zrotation
					JOINT LHoodieString1
					{
						OFFSET 0.257700 -6.364304 3.694600
						CHANNELS 3 Xrotation Yrotation Zrotation
						JOINT LHoodieString2
						{
							OFFSET 0.000000 -9.643799 2.679100
							CHANNELS 3 Xrotation Yrotation Zrotation
							End Site
							{
								OFFSET 0.000000 10.009018 0.000000
							}
						}
					}
				}
				JOINT RHoodieString
				{
					OFFSET -5.250500 16.397697 3.089900
					CHANNELS 3 Xrotation Yrotation Zrotation
					JOINT RHoodieString1
					{
						OFFSET -0.257700 -6.364304 3.694600
						CHANNELS 3 Xrotation Yrotation Zrotation
						JOINT RHoodieString2
						{
							OFFSET 0.000000 -9.643799 2.679100
							CHANNELS 3 Xrotation Yrotation Zrotation
							End Site
							{
								OFFSET 0.000000 10.009018 0.000000
							}
						}
					}
				}
			}
			JOINT LBackpack_Strap
			{
				OFFSET 15.223200 -7.719803 -6.610900
				CHANNELS 3 Xrotation Yrotation Zrotation
				End Site
				{
					OFFSET 0.000000 16.040596 0.000000
				}
			}
			JOINT RBackpack_Strap
			{
				OFFSET -15.223000 -7.719803 -6.610900
				CHANNELS 3 Xrotation Yrotation Zrotation
				End Site
				{
					OFFSET 0.000000 16.040596 0.000000
				}
			}
		}
	}
	JOINT BoyFacialAnim_Joint
	{
		OFFSET 1.000000 -82.208099 -1.550900
		CHANNELS 3 Xrotation Yrotation Zrotation
		End Site
		{
			OFFSET 0.000000 30.012791 0.000000
		}
	}
}
MOTION
Frames: 4
Frame Time: 0.033333
0.345936 70.602997 0.409101 13.809384 0.912842 -0.555310 0.000000 -0.000000 0.000000 6.462958 7.085457 -4.157880 24.774213 1.858846 0.322411 -38.720455 0.167001 0.206303 -0.000000 0.000000 0.000000 -0.000000 0.000000 0.000000 0.000000 -0.000001 0.000001 -62.490084 -3.482877 -0.670456 27.437584 8.923822 -2.757937 21.245903 0.312936 3.953035 -0.000000 -0.000000 -0.000000 -0.000000 -0.000000 -0.000000 -0.000002 -0.000001 0.000000 14.670760 -0.970421 4.739250 5.508348 -0.089066 0.319985 5.507983 -0.130543 0.316223 -0.396751 0.386388 0.109287 -31.179346 3.925789 -3.315685 0.000000 0.000000 0.000000 0.000000 0.000000 0.000000 0.000000 0.000000 0.000000 3.193061 -10.745643 28.645419 -65.579023 -24.902470 -14.506700 0.000007 -50.532844 0.000005 18.387824 -14.086081 17.809882 7.667692 3.743939 9.578464 4.699308 17.311007 1.437837 0.000002 0.000002 0.000004 0.119809 -3.831912 1.628307 0.013272 0.428293 -3.551183 -0.000001 0.000000 -0.000000 0.096163 2.404803 -2.296384 0.067128 0.961093 -7.990577 -0.000001 0.000000 -0.000001 1.297808 9.957323 -7.273009 0.206621 1.677399 -14.043681 0.000001 -0.000001 -0.000004 4.397385 20.331981 -11.719942 0.373671 -1.821095 -19.365231 -0.000001 0.000000 -0.000002 -0.000000 0.000000 -0.000001 -2.624593 -15.379486 -9.653840 41.610240 -13.506907 68.678788 0.000007 2.207544 -0.000002 9.879216 4.353351 5.139133 -2.952576 -4.163059 -18.871642 5.177105 -14.588980 -0.641887 -0.000000 -0.000001 0.000002 -0.570252 2.796308 9.823263 0.089514 -1.114457 9.185228 -0.000001 0.000000 -0.000000 -0.150992 -0.293395 14.482556 0.237343 -1.804712 14.983864 0.000002 0.000001 -0.000002 0.988907 -3.876226 20.799195 0.509307 -2.616695 22.024947 -0.000001 0.000000 -0.000001 2.591944 -6.738858 26.899264 0.765120 -3.175882 27.084241 -0.000000 -0.000001 0.000000 0.000001 -0.000000 -0.000001 0.000003 -0.000000 -0.000000 0.000003 -0.000000 -0.000000 0.000003 -0.000000 -0.000000 0.000003 -0.000000 -0.000000 0.000003 -0.000000 -0.000000 -0.000000 -0.000000 0.000000 0.000003 -0.000000 -0.000000 0.000003 -0.000000 -0.000000 -0.000000 -0.000000 0.000000 0.000002 0.000000 0.000000 0.000002 0.000000 0.000000 0.000000 -0.000000 0.000000 
0.359625 70.076401 -1.111870 13.255277 1.362613 -0.370866 0.000000 0.000000 -0.000000 8.810957 6.434631 -4.421456 20.515694 1.338396 -0.333217 -42.469679 -0.244130 1.079591 -0.000000 -0.000001 0.000000 -0.000000 -0.000001 -0.000000 0.000004 -0.000000 0.000000 -63.824839 -1.776679 -0.714879 30.776395 4.924344 -2.536577 19.789633 0.305881 3.184282 0.000000 0.000000 0.000000 0.000000 0.000000 0.000000 0.000002 -0.000000 -0.000001 16.942008 -0.786384 4.700826 5.120811 -0.087613 0.215523 5.120258 -0.124517 0.213003 -0.396527 0.227159 0.064251 -32.114149 2.962302 -3.134148 0.000001 -0.000000 0.000000 0.000001 -0.000000 0.000000 0.000001 -0.000000 0.000000 2.753821 -9.524543 29.190248 -69.909950 -25.882954 -14.203311 0.000006 -49.873632 0.000002 19.006248 -13.370919 17.768336 7.667697 3.743932 9.578461 4.699304 17.311003 1.437831 0.000001 0.000001 -0.000001 0.154739 -3.893093 2.147054 0.015162 0.457563 -3.794542 -0.000003 0.000004 -0.000001 0.075445 2.345297 -1.796627 0.070584 0.985321 -8.193522 -0.000001 -0.000002 0.000005 1.210164 9.908002 -6.764958 0.212604 1.701175 -14.246809 -0.000000 0.000001 -0.000002 4.204578 20.308536 -11.164724 0.383480 -1.793406 -19.608285 -0.000000 -0.000000 -0.000002 0.000000 0.000002 -0.000001 -2.660992 -15.034640 -10.229145 43.032681 -15.363117 70.693988 -0.000002 0.977136 -0.000009 11.194232 3.096514 3.933966 -2.952575 -4.163059 -18.871644 5.177106 -14.588978 -0.641887 0.000001 -0.000001 0.000002 -0.633366 2.619407 11.159367 0.092772 -1.134444 9.351422 0.000001 0.000001 0.000002 -0.142580 -0.453837 15.771576 0.244868 -1.832520 15.220552 0.000002 0.000001 -0.000002 1.077979 -4.010077 22.094277 0.520152 -2.643363 22.261759 -0.000002 0.000000 0.000006 2.751789 -6.839256 28.251271 0.774359 -3.193891 27.250901 -0.000001 -0.000000 0.000002 -0.000001 -0.000001 -0.000000 0.000002 -0.000000 -0.000000 0.000002 -0.000000 -0.000000 0.000002 -0.000000 -0.000000 0.000002 -0.000000 -0.000000 0.000002 -0.000000 -0.000000 -0.000002 -0.000000 -0.000000 0.000002 -0.000000 -0.000000 0.000002 -0.000000 -0.000000 -0.000002 -0.000000 -0.000000 0.000002 -0.000000 -0.000000 0.000002 -0.000000 -0.000000 0.000000 0.000000 -0.000000 
0.226708 70.233009 -2.176384 13.366868 2.059476 -0.168658 -0.000001 0.000000 -0.000000 6.084530 7.202393 -3.614937 23.971792 -0.295154 -1.269011 -43.212660 -0.625417 1.838280 0.000000 0.000000 -0.000000 0.000000 0.000000 -0.000000 0.000000 0.000000 -0.000000 -64.941678 -1.265244 -1.060395 35.969217 1.676673 -1.941453 15.608022 -0.015731 1.676656 0.000000 0.000000 0.000000 0.000000 0.000000 0.000000 0.000000 -0.000000 -0.000000 18.755097 -0.606364 4.743533 4.606202 -0.089207 0.147817 4.605531 -0.122409 0.146301 -0.396398 0.020939 0.005922 -33.022424 1.870810 -3.202820 0.000001 0.000000 -0.000000 0.000001 0.000000 -0.000000 0.000001 0.000000 -0.000000 2.611284 -9.128779 29.360507 -74.147707 -25.156234 -14.936741 0.000006 -51.686353 0.000007 18.896692 -13.317759 17.237739 7.667696 3.743928 9.578462 4.699305 17.311009 1.437834 0.000000 -0.000001 0.000002 0.246338 -4.047686 3.469866 0.023769 0.572847 -4.752508 0.000001 -0.000002 -0.000000 0.025019 2.192823 -0.522798 0.085753 1.085512 -9.033463 -0.000000 0.000002 0.000001 0.988875 9.778868 -5.470493 0.238269 1.799146 -15.086976 -0.000001 -0.000001 0.000001 3.714393 20.240799 -9.750172 0.423226 -1.684830 -20.564959 0.000002 0.000001 -0.000000 -0.000000 -0.000003 0.000002 -2.521547 -13.900077 -10.642941 45.132906 -16.314373 74.151314 -0.000000 0.396731 -0.000010 11.288883 1.399941 2.314403 -2.952578 -4.163060 -18.871644 5.177104 -14.588978 -0.641889 0.000003 0.000004 0.000001 -0.722370 2.344486 13.214329 0.105874 -1.211147 9.990237 -0.000002 0.000001 0.000002 -0.122585 -0.700230 17.754988 0.268865 -1.918546 15.954108 0.000000 0.000001 -0.000002 1.220902 -4.212018 24.087716 0.554556 -2.725759 22.995773 -0.000000 0.000000 0.000000 3.002308 -6.986319 30.332518 0.810447 -3.262887 27.891472 0.000001 -0.000000 0.000002 0.000001 -0.000000 0.000000 0.000001 0.000000 0.000000 0.000001 0.000000 0.000000 0.000001 0.000000 0.000000 0.000001 0.000000 0.000000 0.000001 0.000000 0.000000 -0.000002 0.000000 0.000000 0.000001 0.000000 0.000000 0.000001 0.000000 0.000000 -0.000002 0.000000 0.000000 -0.000002 0.000000 0.000000 -0.000002 0.000000 0.000000 -0.000001 0.000000 -0.000000 
-0.136244 71.533241 -1.992683 15.130764 3.346594 -0.096741 0.000001 0.000000 -0.000000 6.081725 7.278413 -3.074130 18.769923 -1.781271 -1.627356 -38.388744 -0.452931 1.873229 -0.000000 0.000001 0.000000 -0.000000 0.000001 0.000000 0.000000 0.000000 0.000001 -64.903627 -1.878322 -1.684118 40.720789 0.277179 -1.172277 9.011898 -0.232009 0.075463 0.000000 0.000000 0.000000 0.000000 0.000000 0.000000 -0.000000 -0.000000 -0.000000 17.953902 -0.689121 5.002360 4.413467 -0.097955 0.143571 4.412640 -0.133304 0.141963 -0.396511 -0.213887 -0.060495 -33.787583 0.675095 -3.381128 0.000001 -0.000000 -0.000000 0.000001 -0.000000 -0.000000 0.000001 -0.000000 -0.000000 2.887803 -9.840760 29.699951 -74.654780 -21.538735 -17.673184 0.000019 -56.330909 0.000016 17.460979 -14.576633 15.933546 7.667693 3.743934 9.578463 4.699305 17.311005 1.437829 0.000001 0.000001 0.000005 0.279590 -4.101804 3.937580 0.030171 0.645306 -5.355320 -0.000003 0.000001 -0.000000 0.007997 2.138654 -0.072572 0.096483 1.150922 -9.582878 0.000001 -0.000003 0.000003 0.911372 9.732041 -5.013150 0.255818 1.863007 -15.636289 0.000001 -0.000001 0.000003 3.541619 20.214136 -9.250448 0.449123 -1.616856 -21.166954 -0.000000 -0.000002 0.000001 0.000000 0.000002 -0.000002 -1.961904 -11.261585 -10.000683 45.559298 -13.145698 79.022850 0.000014 0.305796 0.000026 8.360023 0.596912 1.205722 -2.952576 -4.163060 -18.871642 5.177108 -14.588977 -0.641883 0.000001 -0.000000 -0.000001 -0.826468 1.969737 15.979146 0.119646 -1.286923 10.622390 -0.000000 0.000001 0.000004 -0.082272 -1.030497 20.425061 0.295184 -2.008245 16.721976 0.000000 0.000000 -0.000002 1.424274 -4.475810 26.772620 0.591675 -2.811483 23.764112 -0.000000 0.000001 -0.000001 3.347830 -7.169853 33.136041 0.846906 -3.330716 28.525394 0.000001 -0.000001 0.000002 -0.000002 -0.000001 0.000000 -0.000001 -0.000000 0.000000 -0.000001 -0.000000 0.000000 -0.000001 -0.000000 0.000000 -0.000001 -0.000000 0.000000 -0.000001 -0.000000 0.000000 -0.000003 0.000000 0.000000 -0.000001 -0.000000 0.000000 -0.000001 -0.000000 0.000000 -0.000003 0.000000 0.000000 -0.000002 0.000000 0.000000 -0.000002 0.000000 0.000000 0.000001 0.000000 -0.000000 
